# xmcd CD database file
#
# Track frame offsets:
#	150
#	24520
#	53951
#	78403
#	115320
#	143567
#	162286
#	191460
#	214599
#	235225
#
# Disc length: 3552 seconds
#
# Revision: 0
# Processed by: cddbd v1.5.2PL0 Copyright (c) Steve Scherf et al.
# Submitted via: CDex 1.78
#
DISCID=7f0dde0a
DTITLE=Marjan Vahdat - Blue Fields
DYEAR=2013
DGENRE=Arabic
TTITLE0=Rooted in You
TTITLE1=Shevano
TTITLE2=Tazarv
TTITLE3=Song of Spring
TTITLE4=Blue Longing
TTITLE5=Stately Cypress
TTITLE6=Beholding the Twilight
TTITLE7=A Dream
TTITLE8=Joyful Breeze of Spring
TTITLE9=Scent Of Trees
EXTD=YEAR: 2013
EXTT0=
EXTT1=
EXTT2=
EXTT3=
EXTT4=
EXTT5=
EXTT6=
EXTT7=
EXTT8=
EXTT9=
PLAYORDER=
